<svg
  version="1.1"
  xmlns="http://www.w3.org/2000/svg"
  style="display: block"
  viewBox="0 0 2048 2048"
  width="1024"
  height="1024"
  preserveAspectRatio="none"
>
  <path
    transform="translate(0,0)"
    fill="rgb(9,84,157)"
    d="M 1412.23 540.3 C 1431.99 539.818 1435.75 548.573 1443.35 564.977 C 1458.76 598.205 1477.77 631.492 1488.74 666.398 C 1512.47 635.985 1538.14 616.549 1577.03 609.47 C 1612.29 603.073 1648.65 610.894 1678.16 631.225 C 1702.58 648.275 1723.02 675.127 1731.8 703.686 C 1734.82 713.517 1736.8 725.929 1738.63 736.224 C 1754.87 747.367 1756.32 758.794 1751.84 777.284 C 1744.69 806.797 1727.31 834.998 1705.65 855.922 C 1698.94 862.356 1691.71 868.213 1684.02 873.433 C 1681.22 875.318 1674.32 878.705 1673.49 881.352 C 1682.61 882.61 1694.01 868.007 1707.95 879.317 C 1720.93 886.378 1719.5 906.397 1708.52 915.532 C 1695.18 926.626 1673.42 948.51 1658.66 957.411 C 1654.95 959.604 1650.74 960.811 1646.43 960.916 C 1640.49 961.029 1634.76 958.69 1630.59 954.45 C 1626.2 949.932 1623.89 943.795 1624.2 937.504 C 1624.65 926.736 1631.19 921.029 1638.35 914.434 C 1630.61 907.833 1623.31 902.398 1615.34 895.341 C 1579.55 899.304 1549.18 890.945 1519.2 871.079 C 1520.23 924.133 1493.34 953.315 1464.83 994.28 C 1449.72 1016 1435.11 1038.5 1419.23 1059.66 C 1438.51 1097.03 1455.22 1135.89 1474.45 1173.31 C 1478.89 1181.94 1483.93 1191.64 1487.39 1200.61 C 1489.55 1206.17 1491 1211.98 1491.7 1217.9 C 1498.19 1274.52 1432.6 1311.16 1386.61 1277.42 C 1372.05 1266.74 1359.61 1243.96 1349.75 1228.57 L 1314.25 1173.09 C 1304.32 1157.54 1294.18 1141.01 1284.11 1125.65 C 1268.7 1102.16 1263.98 1092.2 1261.72 1064.19 C 1236.36 1075.57 1204.69 1085.97 1180.34 1098.83 C 1172.33 1103.06 1153.8 1127.8 1146.38 1136.64 C 1124.83 1162.15 1103.47 1187.81 1082.3 1213.63 C 1069.56 1229.16 1051.1 1252.85 1037.18 1266.48 C 1017.26 1285.71 992.024 1298.51 964.741 1303.23 C 940.699 1307.48 898.692 1303.12 872.927 1301.68 L 736.043 1293.74 C 709.905 1292.11 679.3 1289.28 653.517 1288.99 C 633.048 1316.66 604.783 1354.56 581.692 1379.6 C 543.871 1420.62 502.879 1461.63 462.757 1500.29 C 433.753 1528.24 403.942 1471.12 380.598 1460.14 C 370.076 1453.72 358.611 1448.91 347.813 1443.06 C 328.252 1432.48 300.621 1428.71 301.417 1401.48 C 302.201 1396.71 304.378 1390.55 307.99 1387.2 C 370.293 1329.41 439.194 1276.36 498.195 1215.17 C 514.755 1198.03 530.676 1180.28 545.924 1161.97 C 554.18 1151.94 563.675 1138.23 572.545 1129.44 C 594.612 1107.59 646.026 1148.17 671.305 1148.95 C 694.377 1149.65 722.28 1144.23 746.751 1145.74 C 735.054 1131.64 717.358 1105.32 706.241 1089.74 L 642.616 1000.88 C 630.455 983.802 617.776 964.905 605.204 948.381 C 567.263 939.33 525.358 936.568 487.617 927.377 C 430.285 912.535 372.526 897.755 315.737 880.998 C 296.875 875.433 293.469 861.838 298.35 844.678 C 303.278 827.352 306.612 810.545 308.486 792.623 C 311.125 767.387 279.35 682.366 329.769 692.47 C 439.115 723.879 544.158 771.765 657.553 787.734 C 668.046 789.211 693.55 790.802 699.28 798.143 C 715.821 819.331 715.105 855.329 728.171 879.285 C 767.523 924.778 806.577 971.536 846.354 1016.64 C 903.721 992.311 965.515 967.881 1021.53 941.942 C 1019.37 941.827 1017.21 941.695 1015.04 941.545 C 998.741 940.396 984.567 936.073 973.654 923.026 C 963.43 910.802 916.927 814.3 911.724 797.69 C 909.772 791.459 909.229 785.028 909.837 778.532 C 911.261 763.31 917.963 749.216 930.109 739.659 C 942.974 729.537 961.769 722.512 976.476 715.317 L 1059.47 674.624 L 1183.48 613.237 C 1207.76 601.139 1234.72 585.926 1259.95 577.063 C 1306.13 560.844 1353.12 578.436 1382.55 615.085 C 1391.79 610.117 1400.68 605.783 1410.11 601.217 C 1400.1 581.619 1378.99 549.964 1412.23 540.3 z M 677.114 1194.56 C 662.499 1204.73 658.972 1227.66 662.049 1244.19 C 682.209 1244.63 701.754 1246.28 721.771 1247.19 C 784.472 1251.75 849.599 1253.49 912.01 1258.49 C 988.638 1264.63 1000.91 1239.68 1045.66 1185.7 L 1118.25 1099.01 C 1144.7 1067.59 1143.48 1062.23 1183.47 1048.03 L 1151.74 960.472 C 1148.29 950.938 1139.74 925.161 1135.76 917.034 C 1061.97 950.574 1054.34 966.864 1018.26 1036.61 L 974.776 1120.42 C 940.214 1187.59 953.964 1176.54 880.602 1181.24 L 752.972 1189.45 C 731.589 1190.72 696.92 1191.61 677.114 1194.56 z M 1178.12 896.94 C 1191.13 940.145 1210.64 987.54 1225.32 1030.85 C 1242.62 1022.41 1261.48 1016.21 1278.7 1007.84 C 1291.6 981.924 1304.81 956.164 1318.33 930.571 C 1325.87 916.024 1338.33 886.982 1350.48 877.868 C 1358.84 876.221 1366.69 875.289 1374.24 880.229 C 1394.85 893.734 1373.62 923.385 1365.9 938.215 L 1329.25 1009.22 C 1324.64 1018.13 1312.73 1039.93 1309.7 1048.48 C 1305.15 1067.97 1309.53 1080.03 1319.71 1096.49 C 1337.88 1125.84 1357.54 1154.44 1376.14 1183.56 C 1385.52 1198.26 1399.05 1222.76 1409.4 1235.27 C 1412.76 1239.33 1417.36 1242.54 1422.51 1243.79 C 1427.53 1245 1433.06 1244.42 1437.49 1241.67 C 1441.86 1238.97 1444.94 1234 1446.04 1229.03 C 1450.36 1209.42 1365.43 1077.21 1371.25 1052.38 C 1374.07 1040.37 1385.08 1028.45 1392.12 1018.5 C 1406.26 998.503 1419.78 978.064 1433.7 957.923 C 1460.16 919.648 1493.17 881.359 1459.93 834.748 C 1447.92 817.911 1429.47 805.729 1408.98 802.343 C 1402.84 801.329 1396.9 801.208 1390.7 801.448 C 1364.24 805.696 1338.14 821.497 1313.33 832.641 C 1268.77 852.657 1222.86 877.961 1178.12 896.94 z M 1057.07 875.916 C 1052.26 866.628 998.589 756.386 997.248 755.927 C 988.981 759.952 959.85 772.543 956.031 779.065 C 956.464 784.011 957.772 788.387 959.655 792.952 C 963.425 802.091 1005.78 891.511 1009.45 893.871 C 1011.08 894.924 1014.32 895.096 1016.25 895.11 C 1029.79 888.784 1043.49 882.013 1057.07 875.916 z M 1685.22 710.537 C 1666.35 671.321 1635.1 650.196 1590.85 653.375 C 1569.62 656.889 1556.29 662.441 1540.03 676.587 L 1609.51 724.543 C 1616.64 719.044 1620.52 716.132 1628.97 712.472 C 1649.81 705.004 1663.83 705.256 1685.22 710.537 z M 521.435 887.627 C 532.503 889.248 542.822 891.145 553.77 892.913 C 572.157 896.013 591.945 898.849 610.084 902.161 C 627.624 881.039 650.21 873.588 677.18 870.481 C 673.375 859.392 670.313 848.126 667.114 836.849 C 665.404 836.945 659.95 837.146 658.538 837.391 C 631.703 840.465 607.372 846.373 581.253 852.814 C 551.207 860.224 538.108 858.714 521.435 887.627 z M 444.501 1455.9 C 474.435 1423.22 509.231 1391.23 538.338 1359.16 C 517.471 1334.06 507.274 1310.45 513.429 1276.94 C 513.877 1274.5 516.511 1263.38 516.347 1262.07 C 467.704 1310.46 413.184 1353.29 362.922 1399.28 C 378.675 1407.55 402.588 1417.68 415.527 1428.3 C 423.12 1434.15 438.374 1448.5 444.501 1455.9 z M 1189.08 661.074 C 1145.58 681.254 1102.75 705.066 1059.31 725.57 C 1052.62 728.728 1045.44 732.147 1038.9 735.573 C 1045.68 748.428 1095.85 852.893 1097.97 854.469 L 1098.44 854.322 C 1147.36 830.098 1198.76 802.819 1247.85 779.97 C 1242.46 769.116 1192.22 664.154 1189.08 661.074 z M 1513.34 713.919 C 1509.46 723.988 1506.48 733.501 1505.53 744.326 C 1501.82 786.702 1526.68 829.475 1566.88 844.658 C 1579.01 849.354 1592.02 851.356 1605 850.523 L 1607.33 849.518 C 1606.57 847.848 1597.54 838.897 1594.85 835.375 C 1578.7 814.19 1575.96 787.857 1584.03 762.875 C 1562.95 747.402 1535.34 728.413 1513.34 713.919 z M 648.576 928.481 C 679.884 974.761 713.598 1020.46 745.901 1066.04 C 763.386 1090.71 785.073 1131.3 816.892 1134.92 C 848.701 1138.55 884.432 1134.32 916.649 1132.45 C 926.402 1115.84 936.92 1093.89 945.866 1076.45 L 969.008 1032.03 C 971.52 1027.19 977.474 1014.7 980.169 1010.6 C 946.971 1021.93 914.347 1037.35 882.017 1051.09 C 869.674 1056.34 856.327 1063.84 843.247 1066.66 C 838.985 1067.57 833.995 1066.71 830.08 1064.87 C 817.894 1059.16 718.188 935.969 697.251 915.011 C 692.554 914.999 686.27 914.79 681.739 915.318 C 668.502 917.714 659.134 919.295 648.576 928.481 z M 1653.48 752.152 C 1632.36 757.45 1621.14 774.141 1625.06 795.797 C 1627.55 809.506 1648.91 827.166 1659.46 836.107 C 1662.11 834.071 1666.27 831.077 1668.65 828.96 C 1687.32 811.711 1699.62 793.83 1705.72 768.931 C 1692.25 761.942 1668.2 749.911 1653.48 752.152 z M 580.233 1308.66 C 591.768 1294.1 606.913 1273.75 619.017 1260.31 C 611.251 1231.28 613.879 1209.78 628.158 1183.03 C 619.238 1179.74 604.456 1174.59 596.371 1170.33 C 576.582 1204.42 564.892 1249.42 558.442 1288.65 C 556.317 1301.58 561.065 1313.62 568.627 1324.24 C 572.445 1319.01 576.314 1313.82 580.233 1308.66 z M 1401.72 656.329 C 1408.45 694.922 1403.66 720.55 1380.7 752.948 C 1379.79 754.245 1378.86 755.531 1377.91 756.803 C 1392.91 754.887 1404 755.326 1418.84 757.337 C 1434.91 760.881 1443.65 764.092 1458.51 771.622 C 1447.51 726.687 1457.2 688.232 1430.27 643.77 L 1428.53 642.98 L 1401.72 656.329 z M 1283.11 617.359 C 1270.33 619.186 1244.26 634.232 1231.04 640.759 L 1266.28 713.364 C 1273.23 727.557 1282.38 744.844 1288.54 759.122 L 1300.37 753.37 C 1317.87 744.815 1333.99 738.773 1345.83 722.53 C 1361.1 701.588 1362.71 675.498 1351.14 652.38 C 1343.51 636.93 1329.94 625.235 1313.53 619.966 C 1303.01 616.553 1294.05 616.144 1283.11 617.359 z M 349.45 745.375 C 354.94 791.563 356.638 798.37 346.548 843.608 C 386.762 852.468 438.647 866.804 478.494 878.367 C 484.742 860.403 489.275 849.324 503.724 836.271 C 519.185 821.943 533.902 816.734 554.338 812.694 C 485.557 794.261 416.932 766.88 349.45 745.375 z"
  />
</svg>
